<svg width="647" height="75" viewBox="0 0 647 75" fill="none" xmlns="http://www.w3.org/2000/svg">
<path d="M0.046875 38.0312C1.35938 48.8438 3.625 56.5938 6.84375 61.2812L7.73438 62.3125C8.23438 63.0312 9.48438 64.0938 11.4844 65.5C15.0469 68 19.2656 69.25 24.1406 69.25C24.2031 69.25 24.2656 69.25 24.3281 69.25C26.2656 69.25 27.3594 69.2188 27.6094 69.1562C32.2344 68.2188 35.7969 65.7812 38.2969 61.8438C39.9531 58.9688 40.7812 55.9531 40.7812 52.7969V51.5781C40.5 47.6719 37.8281 44.625 32.7656 42.4375L16.8281 35.125C8.89062 31.4375 4.89062 26.0312 4.82812 18.9062V17.9688C4.95312 13.125 6.70312 9.09375 10.0781 5.875C13.4844 2.625 17.7656 1 22.9219 1C23.0156 1 23.1094 1 23.2031 1C28.3906 1 32.4688 2.95312 35.4375 6.85938L35.8125 6.90625C38.1562 6.65625 39.8281 4.6875 40.8281 1V28.0938C38.9531 20.375 37.0156 15.1875 35.0156 12.5312L33.4219 10.5625C32.9531 10.125 32.1406 9.4375 30.9844 8.5C28.5781 6.53125 26.1094 5.53125 23.5781 5.5C23.5781 5.5 23.5312 5.5 23.4375 5.5C20.4062 5.5 17.9219 6.40625 15.9844 8.21875C13.9844 10.0938 12.9844 12.6875 12.9844 16C12.9844 16.0938 12.9844 16.1875 12.9844 16.2812C12.9844 20.625 15.8906 24.0938 21.7031 26.6875L38.7656 34.2812C45.7969 37.4062 49.5469 43.0781 50.0156 51.2969V53.125C49.0781 59.25 46.4844 64.2188 42.2344 68.0312C38.0781 72.125 32.5781 74.1719 25.7344 74.1719H25.3594C23.1094 74.1719 19.8594 73.5312 15.6094 72.25L6.84375 68.5L6.23438 68.2656C3.10938 68.5156 1.04688 70.5 0.046875 74.2188V38.0312ZM53.2969 33.25L61.6875 19.4688C61.5 20.25 61.4062 21.0469 61.4062 21.8594C61.4062 23.8906 62.5156 24.9062 64.7344 24.9062C64.7969 24.9062 64.875 24.9062 64.9688 24.9062H65.1562H72.5156V11.4062C72.5156 10.6875 72.3125 10.1406 71.9062 9.76562C71.4375 9.32812 70.4219 8.95312 68.8594 8.64062C67.1094 8.29688 65.3594 7.9375 63.6094 7.5625C66.4531 6.3125 71.2344 4.53125 77.9531 2.21875C79.1406 1.8125 80.4219 1.40625 81.7969 1V24.9062H91.875H92.25C96.1875 24.6875 99.1406 23.5 101.109 21.3438L92.7188 35.125C92.9062 34.3438 93 33.5469 93 32.7344C93 30.7031 91.8906 29.6875 89.6719 29.6875C89.6094 29.6875 89.5312 29.6875 89.4375 29.6875H89.25H81.7969V66.0625L81.8906 66.4844C83.5781 69.9531 86.5156 72.125 90.7031 73H63.6094C67.4844 72.25 70.4219 70.0625 72.4219 66.4375L72.5156 66.0625V29.6875H62.5312H62.1562C58.2188 29.9062 55.2656 31.0938 53.2969 33.25ZM114.094 47.5938C114.094 54.625 114.875 59.8125 116.438 63.1562C118.469 67.5 121.25 69.6719 124.781 69.6719C125.25 69.6719 125.719 69.6719 126.188 69.6719C128.781 69.6719 131.281 68.4688 133.688 66.0625L134.156 65.3594C134.625 64.8594 134.859 63.8125 134.859 62.2188V33.2969C134.859 31.7031 134.641 30.6562 134.203 30.1562L133.734 29.4531C131.328 27.0469 128.828 25.8438 126.234 25.8438C125.766 25.8438 125.297 25.8438 124.828 25.8438C121.297 25.8438 118.516 28.0156 116.484 32.3594C114.891 35.7656 114.094 40.8438 114.094 47.5938ZM103.922 47.1719C103.922 42.5469 104.844 38.25 106.688 34.2812C108.531 30.2812 111.062 27.1406 114.281 24.8594C117.594 22.5156 121.312 21.3438 125.438 21.3438C129.031 21.3438 133.453 22.2656 138.703 24.1094C146.234 26.7656 151.016 28.5469 153.047 29.4531C152.359 29.4844 150.547 29.8281 147.609 30.4844C146.359 30.7656 145.406 31.1562 144.75 31.6562C144.344 31.9688 144.141 32.5156 144.141 33.2969V62.2188C144.141 63.0312 144.328 63.5781 144.703 63.8594C145.359 64.3594 146.312 64.75 147.562 65.0312C150.5 65.6875 152.312 66.0312 153 66.0625C150.969 66.9688 146.188 68.75 138.656 71.4062C133.406 73.25 128.984 74.1719 125.391 74.1719C121.266 74.1719 117.547 73 114.234 70.6562C111.016 68.375 108.484 65.2344 106.641 61.2344C104.828 57.3281 103.922 52.6406 103.922 47.1719ZM156.797 73C160.672 72.25 163.609 70.0625 165.609 66.4375L165.703 66.0625V33.2969C165.703 32.5469 165.5 32 165.094 31.6562C164.531 31.1562 163.578 30.7656 162.234 30.4844C159.422 29.8594 157.609 29.5156 156.797 29.4531C158.953 28.4844 163.734 26.7031 171.141 24.1094C176.391 22.2656 180.922 21.3438 184.734 21.3438C184.859 21.3438 184.984 21.3438 185.109 21.3438C190.172 21.3438 194.578 23.0938 198.328 26.5938C201.453 30.2188 203.016 33.8594 203.016 37.5156C203.016 37.6094 203.016 37.6875 203.016 37.75C203.016 39.4688 202.422 40.9688 201.234 42.25C200.078 43.5 198.641 44.125 196.922 44.125C195.203 44.125 193.766 43.5312 192.609 42.3438C191.422 41.125 190.828 39.7031 190.828 38.0781C190.828 38.0156 190.828 37.9688 190.828 37.9375C190.828 36.1562 191.422 34.6875 192.609 33.5312C193.766 32.4062 195.109 31.8125 196.641 31.75C196.422 30.4688 194.891 29 192.047 27.3438C190.641 26.5312 188.812 26.125 186.562 26.125C186.188 26.125 185.812 26.1406 185.438 26.1719C182.031 26.4531 179.219 27.375 177 28.9375C176.844 29.0312 176.391 29.4375 175.641 30.1562C175.203 30.5625 174.984 31.6094 174.984 33.2969V66.0625L175.078 66.4844C176.766 69.9531 179.703 72.125 183.891 73H156.797ZM204.891 73C208.766 72.25 211.703 70.0625 213.703 66.4375L213.797 66.0625V11.4062C213.797 10.625 213.594 10.0781 213.188 9.76562C212.531 9.23438 211.516 8.84375 210.141 8.59375C206.891 7.9375 205.141 7.59375 204.891 7.5625C205.172 7.4375 209.953 5.65625 219.234 2.21875C220.078 1.90625 221.359 1.5 223.078 1V51.25L242.156 28.0469L242.531 27.5312C242.656 27.3125 242.719 27.0469 242.719 26.7344C242.719 25.5156 240.016 24.1094 234.609 22.5156H256.688C254.469 23.1719 251.609 25.3438 248.109 29.0312L247.781 29.4531L231.422 49.0938H238.547L254.719 66.8125L254.859 67L255.047 67.1875C258.672 70.2188 261.844 72.1562 264.562 73H232.922C239.453 71.4062 242.719 69.7031 242.719 67.8906C242.719 67.4219 242.5 66.9531 242.062 66.4844L241.641 66.0625L228.75 52.2812L223.078 59.0781V66.0625L223.172 66.4844C224.859 69.9531 227.797 72.125 231.984 73H204.891ZM270.891 52.375C269.516 48 268.828 43.25 268.828 38.125C268.828 33 269.516 28.0625 270.891 23.3125C272.297 18.4375 274.172 14.4688 276.516 11.4062C278.953 8.1875 281.766 5.65625 284.953 3.8125C288.172 1.9375 291.422 1 294.703 1C294.859 1 295.016 1 295.172 1C298.797 1 302.156 1.8125 305.25 3.4375C307.375 4.5625 309.062 5.70312 310.312 6.85938L310.688 6.90625C313.812 6.65625 315.875 4.67188 316.875 0.953125V28.0469C315.25 21.6719 313.344 16.6719 311.156 13.0469C310.094 11.3906 308.734 9.95312 307.078 8.73438C304.516 6.85938 301.484 5.92188 297.984 5.92188C293.953 5.92188 290.234 7.26562 286.828 9.95312C284.359 12.7969 282.391 16.875 280.922 22.1875C279.484 27.4062 278.766 32.4844 278.766 37.4219C278.766 37.6094 278.766 37.8125 278.766 38.0312C278.766 42.9062 279.266 47.3438 280.266 51.3438C282.578 58.2188 285.359 63 288.609 65.6875C291.266 67.875 294.688 68.9688 298.875 68.9688C299.594 68.9688 300.328 68.9375 301.078 68.875C303.391 68.6875 305.984 67.6875 308.859 65.875C310.453 64.9062 312.234 63.1875 314.203 60.7188C315.453 59.1562 316.484 57.0938 317.297 54.5312L322.078 56.4062C320.891 59.125 319.516 61.5312 317.953 63.625C315.547 66.8125 312.734 69.3281 309.516 71.1719C305.984 73.1719 301.938 74.1719 297.375 74.1719C297.281 74.1719 297.203 74.1719 297.141 74.1719C292.359 74.1719 288.328 73.2344 285.047 71.3594C281.734 69.4531 278.891 66.9219 276.516 63.7656C274.172 60.6406 272.297 56.8438 270.891 52.375ZM342.141 47.5938C342.141 54.5625 342.922 59.75 344.484 63.1562C346.484 67.5 349.375 69.6719 353.156 69.6719C356.531 69.6719 359.203 67.2188 361.172 62.3125C362.797 58.25 363.641 53.4688 363.703 47.9688V47.7812C363.703 41.2812 362.453 36.0312 359.953 32.0312C357.891 28.7188 355.469 27.0625 352.688 27.0625C352.656 27.0625 352.609 27.0625 352.547 27.0625C349.578 27.0625 347.109 28.75 345.141 32.125C343.141 35.5312 342.141 40.6875 342.141 47.5938ZM331.922 48.3438C331.922 43.1875 332.859 38.5781 334.734 34.5156C336.641 30.3906 339.156 27.1719 342.281 24.8594C345.438 22.5156 348.922 21.3438 352.734 21.3438C356.516 21.3438 360 22.5156 363.188 24.8594C366.344 27.1719 368.859 30.3906 370.734 34.5156C372.609 38.6406 373.547 43.0625 373.547 47.7812C373.547 52.5312 372.609 56.9375 370.734 61C368.859 65.0625 366.344 68.2812 363.188 70.6562C360.062 73 356.578 74.1719 352.734 74.1719C349.078 74.1719 345.594 73 342.281 70.6562C339.094 68.4062 336.562 65.2656 334.688 61.2344C332.844 57.2656 331.922 52.9688 331.922 48.3438ZM380.578 73C384.453 72.25 387.391 70.0625 389.391 66.4375L389.484 66.0625V31.75C389.484 30.9688 389.281 30.4219 388.875 30.1094C388.25 29.6094 387.297 29.2188 386.016 28.9375C383.172 28.3125 381.359 27.9688 380.578 27.9062C381.641 27.4375 386.422 25.6562 394.922 22.5625C396.234 22.0938 397.516 21.6875 398.766 21.3438V24.9531L398.906 24.8594C402.031 22.5156 405.516 21.3438 409.359 21.3438C413.141 21.3438 416.625 22.5156 419.812 24.8594C422.969 27.1719 425.484 30.3906 427.359 34.5156C429.234 38.6406 430.172 43.0625 430.172 47.7812V48.0625V63.7656C430.172 64.5469 430.375 65.0938 430.781 65.4062C431.406 65.9062 432.359 66.2969 433.641 66.5781C436.484 67.2031 438.297 67.5469 439.078 67.6094C437.328 68.3906 432.547 70.1719 424.734 72.9531C423.422 73.4219 422.141 73.8281 420.891 74.1719V47.9688V47.7812C420.891 40.6562 419.531 35.375 416.812 31.9375C414.25 28.6875 411.172 27.0625 407.578 27.0625C407.516 27.0625 407.453 27.0625 407.391 27.0625C403.422 27.0625 400.547 28.5 398.766 31.375V66.0625L398.859 66.4844C400.547 69.9531 403.484 72.125 407.672 73H380.578ZM440.953 73C444.828 72.25 447.766 70.0625 449.766 66.4375L449.859 66.0625V31.75C449.859 30.9688 449.656 30.4219 449.25 30.1094C448.625 29.6094 447.672 29.2188 446.391 28.9375C443.547 28.3125 441.734 27.9688 440.953 27.9062C442.016 27.4375 446.797 25.6562 455.297 22.5625C456.609 22.0938 457.891 21.6875 459.141 21.3438V24.9531L459.281 24.8594C462.406 22.5156 465.891 21.3438 469.734 21.3438C473.516 21.3438 477 22.5156 480.188 24.8594C483.344 27.1719 485.859 30.3906 487.734 34.5156C489.609 38.6406 490.547 43.0625 490.547 47.7812V48.0625V63.7656C490.547 64.5469 490.75 65.0938 491.156 65.4062C491.781 65.9062 492.734 66.2969 494.016 66.5781C496.859 67.2031 498.672 67.5469 499.453 67.6094C497.703 68.3906 492.922 70.1719 485.109 72.9531C483.797 73.4219 482.516 73.8281 481.266 74.1719V47.9688V47.7812C481.266 40.6562 479.906 35.375 477.188 31.9375C474.625 28.6875 471.547 27.0625 467.953 27.0625C467.891 27.0625 467.828 27.0625 467.766 27.0625C463.797 27.0625 460.922 28.5 459.141 31.375V66.0625L459.234 66.4844C460.922 69.9531 463.859 72.125 468.047 73H440.953ZM504.609 47.7344C504.609 43.0469 505.547 38.6406 507.422 34.5156C509.266 30.4531 511.781 27.2344 514.969 24.8594C518.125 22.5156 521.609 21.3438 525.422 21.3438C529.047 21.3438 532.469 22.4062 535.688 24.5312C538.031 25.8125 540.125 27.9844 541.969 31.0469C543.281 33.2344 544.016 35.6094 544.172 38.1719C544.141 43.7031 541.656 48.2344 536.719 51.7656C532.531 54.7656 527.578 56.2656 521.859 56.2656C521.797 56.2656 519.562 56.1406 515.156 55.8906C515.938 59.1094 516.984 61.7188 518.297 63.7188C520.516 67.0938 523.422 68.7812 527.016 68.7812H527.109C530.953 68.7812 534.219 67.125 536.906 63.8125C538 62.4688 538.984 60.625 539.859 58.2812L545.297 59.875C545.172 60.375 545.062 60.7188 544.969 60.9062C542.344 65.7188 539.828 68.9375 537.422 70.5625C533.516 72.9375 529.797 74.125 526.266 74.125H526.125C521.844 74.125 518.125 72.9688 514.969 70.6562C511.812 68.3438 509.297 65.125 507.422 61C505.547 56.875 504.609 52.4531 504.609 47.7344ZM535.359 38.125C535.359 34.5938 534.422 31.8125 532.547 29.7812C530.922 28 528.672 26.9844 525.797 26.7344H525.703C522.266 26.7344 519.516 28.4062 517.453 31.75C515.891 34.3125 514.922 37.5 514.547 41.3125C514.328 43.5312 514.219 45.9375 514.219 48.5312C514.219 49.4062 514.281 50.4219 514.406 51.5781C517.25 51.6406 520.094 51.6719 522.938 51.6719C524.406 51.6719 525.453 51.5938 526.078 51.4375C529.234 50.6562 531.422 49.3438 532.641 47.5C534.453 44.4688 535.359 41.3438 535.359 38.125ZM555.609 47.7344C555.609 42.9844 556.547 38.5625 558.422 34.4688C560.297 30.375 562.812 27.1562 565.969 24.8125C569.062 22.5312 572.547 21.375 576.422 21.3438H576.562C580.219 21.3438 583.656 22.5 586.875 24.8125C590.125 27.1562 592.469 29.9688 593.906 33.25L594.562 34.75L594.609 34.8438C595.172 36.375 595.453 37.8125 595.453 39.1562C595.453 40.875 594.859 42.375 593.672 43.6562C592.516 44.9062 591.078 45.5312 589.359 45.5312C587.672 45.5312 586.234 44.9375 585.047 43.75C583.859 42.5312 583.266 41.0625 583.266 39.3438C583.266 37.625 583.859 36.1719 585.047 34.9844C585.766 34.2656 586.562 33.75 587.438 33.4375C586.906 32.5625 586.172 31.5938 585.234 30.5312C583.328 28.375 580.859 27.1562 577.828 26.875H577.734C573.641 26.875 570.516 28.5469 568.359 31.8906C566.172 35.2969 565.078 40.5312 565.078 47.5938V47.7812C565.078 55 566.469 60.3125 569.25 63.7188C572.062 67.125 574.984 68.8281 578.016 68.8281H578.109C581.922 68.8281 585.188 67.1562 587.906 63.8125C589 62.4688 589.984 60.6406 590.859 58.3281L596.297 59.875C596.203 60.2812 596.094 60.6406 595.969 60.9531C594.312 64.8594 591.797 68.0781 588.422 70.6094C585.266 72.9844 581.547 74.1719 577.266 74.1719H577.125C572.812 74.1719 569.094 73.0156 565.969 70.7031C562.844 68.3594 560.328 65.125 558.422 61C556.547 56.9375 555.609 52.5156 555.609 47.7344ZM599.109 33.25L607.5 19.4688C607.312 20.25 607.219 21.0469 607.219 21.8594C607.219 23.8906 608.328 24.9062 610.547 24.9062C610.609 24.9062 610.688 24.9062 610.781 24.9062H610.969H618.328V11.4062C618.328 10.6875 618.125 10.1406 617.719 9.76562C617.25 9.32812 616.234 8.95312 614.672 8.64062C612.922 8.29688 611.172 7.9375 609.422 7.5625C612.266 6.3125 617.047 4.53125 623.766 2.21875C624.953 1.8125 626.234 1.40625 627.609 1V24.9062H637.688H638.062C642 24.6875 644.953 23.5 646.922 21.3438L638.531 35.125C638.719 34.3438 638.812 33.5469 638.812 32.7344C638.812 30.7031 637.703 29.6875 635.484 29.6875C635.422 29.6875 635.344 29.6875 635.25 29.6875H635.062H627.609V66.0625L627.703 66.4844C629.391 69.9531 632.328 72.125 636.516 73H609.422C613.297 72.25 616.234 70.0625 618.234 66.4375L618.328 66.0625V29.6875H608.344H607.969C604.031 29.9062 601.078 31.0938 599.109 33.25Z" fill="white"/>
</svg>
